<svg version="1.1" id="Layer_1" xmlns="http://www.w3.org/2000/svg" xmlns:xlink="http://www.w3.org/1999/xlink" x="0px" y="0px"
	 viewBox="0 0 1224.276 280.582" style="enable-background:new 0 0 1224.276 280.582;" xml:space="preserve">
<g>
	<g>
		<path d="M207.202,199.821v-83.969h12.832l36.708,61.297h-6.72l36.106-61.297h12.838l0.24,83.969h-14.994v-60.818h2.998
			l-30.467,51.34h-7.076l-31.192-51.34h3.599v60.818H207.202z"/>
		<path d="M336.866,199.821l37.789-83.969h15.351l37.906,83.969H411.48l-32.39-75.695h6.24l-32.507,75.695H336.866z
			 M354.262,180.387l4.318-12.236h45.222l4.196,12.236H354.262z"/>
		<path d="M503.244,201.025c-6.48,0-12.438-1.065-17.875-3.184c-5.436-2.119-10.175-5.133-14.217-9.052
			c-4.036-3.919-7.178-8.477-9.414-13.674c-2.242-5.197-3.36-10.958-3.36-17.273c0-6.326,1.118-12.076,3.36-17.273
			c2.236-5.207,5.399-9.765,9.478-13.684s8.834-6.933,14.275-9.052c5.436-2.119,11.395-3.184,17.869-3.184
			c6.879,0,13.157,1.182,18.833,3.546c5.676,2.353,10.473,5.857,14.392,10.489l-10.074,9.478c-3.12-3.28-6.56-5.74-10.314-7.38
			c-3.759-1.64-7.801-2.46-12.119-2.46c-4.398,0-8.413,0.724-12.055,2.162c-3.637,1.438-6.794,3.482-9.472,6.123
			c-2.684,2.63-4.781,5.751-6.299,9.35c-1.523,3.599-2.279,7.561-2.279,11.885c0,4.313,0.756,8.274,2.279,11.874
			c1.518,3.599,3.615,6.72,6.299,9.35c2.678,2.641,5.836,4.686,9.472,6.123c3.642,1.438,7.657,2.162,12.055,2.162
			c4.318,0,8.36-0.82,12.119-2.46c3.754-1.64,7.194-4.143,10.314-7.497l10.074,9.467c-3.919,4.643-8.716,8.157-14.392,10.564
			C516.518,199.821,510.198,201.025,503.244,201.025z"/>
		<path d="M658.456,199.821l-27.832-83.969h16.197l24.829,75.929h-8.04l25.792-75.929h14.392l25.074,75.929h-7.801l25.43-75.929
			h14.877l-27.832,83.969h-16.554l-22.906-68.496h4.318l-23.151,68.496L658.456,199.821L658.456,199.821z"/>
		<path d="M839.589,201.025c-6.48,0-12.497-1.086-18.056-3.237c-5.559-2.162-10.372-5.207-14.451-9.126
			c-4.079-3.908-7.241-8.487-9.478-13.727c-2.242-5.239-3.36-10.937-3.36-17.092c0-6.24,1.118-11.98,3.36-17.22
			c2.236-5.239,5.399-9.797,9.478-13.674c4.079-3.876,8.876-6.901,14.392-9.062c5.516-2.151,11.554-3.237,18.114-3.237
			c6.475,0,12.476,1.065,17.992,3.184s10.298,5.112,14.334,8.999c4.036,3.876,7.178,8.455,9.419,13.737
			c2.236,5.271,3.354,11.033,3.354,17.273c0,6.23-1.118,11.97-3.354,17.209c-2.242,5.239-5.383,9.819-9.419,13.737
			c-4.036,3.919-8.818,6.933-14.334,9.052C852.064,199.96,846.063,201.025,839.589,201.025z M839.589,187.351
			c4.238,0,8.136-0.724,11.693-2.162s6.661-3.482,9.297-6.123c2.641-2.63,4.696-5.751,6.177-9.35s2.22-7.561,2.22-11.874
			c0-4.324-0.719-8.285-2.156-11.885c-1.443-3.599-3.504-6.72-6.182-9.35c-2.678-2.641-5.798-4.686-9.355-6.123
			c-3.557-1.438-7.454-2.162-11.693-2.162c-4.238,0-8.179,0.724-11.815,2.162c-3.642,1.438-6.778,3.504-9.419,6.177
			c-2.636,2.684-4.718,5.804-6.235,9.361c-1.523,3.557-2.279,7.497-2.279,11.821c0,4.238,0.756,8.157,2.279,11.746
			c1.518,3.599,3.599,6.741,6.235,9.424c2.641,2.673,5.777,4.739,9.419,6.177C831.41,186.627,835.35,187.351,839.589,187.351z"/>
		<path d="M928.233,199.821v-83.969h34.546c7.433,0,13.812,1.182,19.131,3.536c5.319,2.364,9.414,5.783,12.295,10.255
			c2.881,4.483,4.318,9.84,4.318,16.08c0,6.155-1.438,11.437-4.318,15.835c-2.881,4.398-6.975,7.795-12.295,10.191
			c-5.319,2.407-11.698,3.599-19.131,3.599h-25.792l6.837-6.954v31.426L928.233,199.821L928.233,199.821z M943.823,170.078
			l-6.837-7.561h25.074c6.874,0,12.055-1.48,15.532-4.441s5.218-7.071,5.218-12.353c0-5.282-1.741-9.382-5.218-12.3
			c-3.477-2.918-8.658-4.377-15.532-4.377h-25.074l6.837-7.678V170.078z M983.166,199.821l-21.229-30.467h16.671l21.352,30.467
			H983.166z"/>
		<path d="M1042.908,199.821v-83.969h15.59v70.775h43.907v13.194L1042.908,199.821L1042.908,199.821z"/>
		<path d="M1141.749,199.821v-83.969h36.825c8.956,0,16.89,1.736,23.812,5.218c6.911,3.482,12.294,8.381,16.134,14.696
			c3.834,6.315,5.756,13.674,5.756,22.076c0,8.392-1.922,15.75-5.756,22.065c-3.839,6.315-9.222,11.214-16.134,14.696
			c-6.922,3.482-14.856,5.218-23.812,5.218H1141.749z M1157.339,186.627h20.276c6.315,0,11.773-1.203,16.373-3.599
			c4.595-2.396,8.195-5.761,10.793-10.074c2.599-4.324,3.898-9.361,3.898-15.111c0-5.921-1.299-11.001-3.898-15.239
			c-2.598-4.238-6.198-7.561-10.793-9.957c-4.6-2.396-10.058-3.599-16.373-3.599h-20.276L1157.339,186.627L1157.339,186.627z"/>
	</g>
	<g>
		<path d="M216.355,271.799v-30.531h11.458c2.465,0,4.584,0.426,6.347,1.289c1.762,0.852,3.126,2.098,4.079,3.727
			c0.953,1.629,1.432,3.578,1.432,5.846c0,2.236-0.479,4.153-1.432,5.751c-0.953,1.608-2.316,2.843-4.079,3.717
			c-1.762,0.863-3.882,1.299-6.347,1.299h-8.551l2.268-2.524V271.8L216.355,271.799L216.355,271.799z M221.53,260.98l-2.268-2.747
			h8.312c2.284,0,3.999-0.532,5.154-1.608s1.73-2.577,1.73-4.494c0-1.927-0.575-3.408-1.73-4.473s-2.87-1.597-5.154-1.597h-8.312
			l2.268-2.79V260.98z M234.576,271.799l-7.039-11.075h5.532l7.082,11.075H234.576z"/>
		<path d="M322.224,266.997h15.713v4.803h-20.888v-30.531h20.329v4.792h-15.154L322.224,266.997L322.224,266.997z M321.824,253.962
			h13.844v4.664h-13.844V253.962z"/>
		<path d="M411.384,271.799l12.529-30.531h5.096l12.571,30.531h-5.452l-10.74-27.528h2.066l-10.782,27.528H411.384z
			 M417.151,264.728l1.432-4.441h14.999l1.39,4.441H417.151z"/>
		<path d="M516.726,271.799v-30.531h5.176v25.728h14.557v4.803H516.726z"/>
		<path d="M699.94,266.997h15.713v4.803h-20.888v-30.531h20.329v4.792H699.94V266.997z M699.541,253.962h13.844v4.664h-13.844
			V253.962z"/>
		<path d="M801.667,272.236c-2.178,0-4.254-0.341-6.23-1.022c-1.975-0.682-3.557-1.565-4.75-2.641l1.789-4.409
			c1.113,0.958,2.492,1.757,4.137,2.396c1.645,0.65,3.328,0.969,5.053,0.969c1.459,0,2.636-0.181,3.541-0.532
			c0.9-0.341,1.565-0.82,1.986-1.416c0.426-0.596,0.639-1.267,0.639-2.023c0-0.937-0.303-1.683-0.916-2.247
			c-0.612-0.564-1.4-1.022-2.369-1.352c-0.964-0.33-2.039-0.639-3.221-0.916c-1.177-0.277-2.359-0.618-3.541-1.022
			c-1.177-0.415-2.258-0.926-3.243-1.555c-0.98-0.618-1.768-1.459-2.364-2.503c-0.596-1.054-0.895-2.385-0.895-4.015
			c0-1.661,0.399-3.173,1.209-4.558s2.045-2.492,3.701-3.312c1.661-0.831,3.759-1.246,6.31-1.246c1.667,0,3.328,0.234,4.973,0.692
			c1.64,0.469,3.072,1.139,4.297,2.013l-1.635,4.398c-1.246-0.809-2.529-1.416-3.86-1.8c-1.326-0.394-2.598-0.596-3.818-0.596
			c-1.406,0-2.561,0.192-3.461,0.564c-0.9,0.383-1.56,0.884-1.97,1.512s-0.618,1.31-0.618,2.066c0,0.937,0.298,1.683,0.9,2.247
			c0.596,0.575,1.379,1.012,2.343,1.331c0.969,0.32,2.05,0.628,3.243,0.916c1.198,0.298,2.375,0.639,3.541,1.022
			c1.171,0.394,2.242,0.905,3.227,1.534c0.98,0.628,1.768,1.448,2.364,2.481s0.895,2.353,0.895,3.951
			c0,1.629-0.405,3.131-1.214,4.515s-2.045,2.481-3.717,3.312C806.32,271.821,804.212,272.236,801.667,272.236z"/>
		<path d="M894.916,271.799V246.06h-9.228v-4.792h23.631v4.792h-9.227v25.739H894.916z"/>
		<path d="M979.503,271.799l12.529-30.531h5.096l12.571,30.531h-5.452l-10.74-27.528h2.066l-10.782,27.528H979.503z M985.27,264.728
			l1.432-4.441h14.999l1.39,4.441H985.27z"/>
		<path d="M1089.11,271.799V246.06h-9.228v-4.792h23.631v4.792h-9.228v25.739H1089.11z"/>
		<path d="M1184.197,266.997h15.713v4.803h-20.888v-30.531h20.329v4.792h-15.154V266.997z M1183.797,253.962h13.844v4.664h-13.844
			V253.962z"/>
	</g>
	<g>
		<g>
			<rect x="216.355" width="994.976" height="32.714"/>
		</g>
	</g>
</g>
<g>
	<g>
		<g>
			<polygon points="136.464,280.582 41.354,280.582 41.354,263.007 118.889,263.007 118.889,211.045 48.778,132.224 17.575,132.224
				17.575,275.407 0,275.407 0,114.649 56.673,114.649 136.464,204.352 			"/>
		</g>
	</g>
	<g>
		<polygon points="185.567,278.771 167.992,278.771 167.992,132.224 133.958,132.224 113.276,153.36 100.713,141.072
			126.561,114.649 185.567,114.649 		"/>
	</g>
</g>
</svg>