<?xml version="1.0" encoding="UTF-8"?>
<svg id="Layer_2" data-name="Layer 2" xmlns="http://www.w3.org/2000/svg" viewBox="0 0 116.56 24.86">
  <defs>
    <style>
      .cls-1 {
        fill: #231f20;
      }

      .cls-2 {
        fill: none;
        stroke: #ffc516;
        stroke-width: 2px;
      }
    </style>
  </defs>
  <g id="Layer_1-2" data-name="Layer 1">
    <g>
      <g id="Group_90" data-name="Group 90">
        <g id="Group_1" data-name="Group 1">
          <path id="Path_1" data-name="Path 1" class="cls-1" d="M25.13,9.71h1.25l2.74,5.32,2.74-5.32h1.25v7.92h-1v-6.27l-2.41,4.67h-1.16l-2.41-4.67v6.27h-1.01v-7.92Z"/>
          <path id="Path_2" data-name="Path 2" class="cls-1" d="M40.56,9.71h1.29l3.05,7.92h-1.08l-.66-1.73h-3.91l-.66,1.73h-1.08l3.05-7.92Zm2.25,5.25l-1.6-4.21-1.61,4.21h3.2Z"/>
          <path id="Path_3" data-name="Path 3" class="cls-1" d="M48.68,13.67c0-.54,.11-1.08,.32-1.58,.41-.98,1.19-1.76,2.18-2.18,.5-.21,1.04-.32,1.58-.32,.97,0,1.79,.24,2.46,.71,.67,.47,1.12,1.14,1.36,2h-1.16c-.19-.52-.54-.96-1.01-1.26-.5-.3-1.07-.46-1.66-.44-.4,0-.8,.08-1.16,.24-.73,.32-1.31,.91-1.61,1.64-.32,.76-.32,1.62,0,2.38,.3,.74,.88,1.33,1.61,1.64,.37,.16,.76,.24,1.16,.24,.58,.02,1.16-.14,1.66-.44,.47-.3,.82-.74,1.01-1.26h1.16c-.24,.86-.69,1.53-1.36,2-.67,.47-1.49,.71-2.46,.71-.54,0-1.08-.11-1.58-.32-.98-.41-1.76-1.19-2.18-2.17-.21-.5-.32-1.04-.32-1.59Z"/>
        </g>
        <g id="Group_2" data-name="Group 2">
          <path id="Path_4" data-name="Path 4" class="cls-1" d="M63.3,9.8l2.07,6.5,1.95-6.5h1.03l1.95,6.5,2.07-6.5h1.04l-2.51,7.74h-1.17l-1.91-6.25-1.91,6.25h-1.17l-2.5-7.74h1.04Z"/>
          <path id="Path_5" data-name="Path 5" class="cls-1" d="M77.11,13.67c0-.53,.1-1.06,.31-1.55,.4-.96,1.17-1.72,2.13-2.13,.99-.42,2.11-.42,3.1,0,.96,.41,1.72,1.17,2.12,2.13,.42,.99,.42,2.11,0,3.1-.41,.95-1.17,1.71-2.12,2.12-.99,.42-2.11,.42-3.1,0-.96-.4-1.72-1.17-2.13-2.12-.21-.49-.32-1.02-.31-1.55Zm1.04,0c0,.4,.08,.79,.23,1.16,.3,.72,.86,1.3,1.58,1.61,.73,.32,1.55,.32,2.28,0,.71-.31,1.27-.89,1.57-1.61,.31-.74,.31-1.58,0-2.32-.3-.72-.86-1.29-1.57-1.61-.73-.32-1.55-.32-2.28,0-.71,.31-1.28,.89-1.58,1.61-.15,.37-.23,.76-.23,1.16h0Z"/>
          <path id="Path_6" data-name="Path 6" class="cls-1" d="M92.69,9.8c.42,0,.84,.05,1.24,.17,.34,.1,.67,.27,.95,.49,.26,.21,.46,.47,.61,.76,.15,.31,.22,.65,.21,1,.02,.54-.16,1.06-.51,1.47-.34,.4-.81,.67-1.4,.83l1.88,3.02h-1.19l-1.76-2.89h-2.02v2.89h-.98v-7.74h2.97Zm-.1,3.99c.63,0,1.13-.14,1.51-.42,.62-.46,.74-1.33,.29-1.94-.08-.11-.18-.21-.29-.29-.37-.28-.88-.42-1.51-.42h-1.88v3.06h1.88Z"/>
          <path id="Path_7" data-name="Path 7" class="cls-1" d="M100.43,9.8h.98v6.82h3.99v.92h-4.97v-7.74Z"/>
          <path id="Path_8" data-name="Path 8" class="cls-1" d="M109.79,17.54v-7.74h2.72c.56,0,1.11,.09,1.64,.28,.47,.17,.9,.44,1.26,.79,.35,.34,.63,.76,.81,1.22,.19,.51,.29,1.05,.28,1.59,0,.54-.09,1.09-.28,1.6-.18,.46-.45,.88-.81,1.22-.36,.34-.79,.61-1.26,.78-.52,.19-1.08,.28-1.64,.28h-2.72Zm.98-.92h1.73c.41,0,.82-.06,1.21-.2,.35-.13,.67-.33,.93-.58,.26-.26,.47-.58,.6-.93,.28-.8,.28-1.66,0-2.46-.13-.35-.33-.67-.6-.93-.27-.26-.58-.46-.93-.58-.39-.14-.8-.21-1.21-.2h-1.73v5.89Z"/>
        </g>
        <g id="Group_3" data-name="Group 3">
          <path id="Path_9" data-name="Path 9" class="cls-1" d="M4.51,22.75c2.69,0,5.38,0,8.07,0,.28,0,.55,0,.83-.01,.2,0,.38-.15,.38-.35,0-.01,0-.03,0-.04,.01-.48,.01-.97,.01-1.45,0-.93-.03-1.87,.01-2.8,.03-.57-.19-.98-.57-1.37-1.27-1.32-2.53-2.65-3.79-3.98-1.24-1.3-2.49-2.59-3.71-3.91-.33-.36-.68-.54-1.17-.51-.66,.03-1.31,0-1.97,.02-.37,0-.47,.12-.49,.51-.01,.28,0,.55,0,.83,0,3.98,0,7.95,0,11.93,0,.9-.02,1.8-.04,2.7-.01,.46-.1,.56-.55,.56-1.7,0-1.5,.24-1.5-1.46,0-4.49,.01-8.99,.03-13.48,0-1,.01-2,.03-3.01,.01-.57,.08-.65,.68-.65,1.66-.01,3.32,0,4.98,0,.31,0,.61,.13,.81,.37,.9,.96,1.81,1.91,2.71,2.86,1.83,1.93,3.67,3.86,5.5,5.79,.38,.4,.84,.78,1.04,1.26,.18,.45,.08,1.02,.08,1.54,0,1.87,0,3.73,0,5.6,0,.24,0,.48-.01,.73-.02,.31-.12,.41-.46,.43-.17,.01-.35,0-.52,0-3.11,0-6.23,0-9.34,0-1.15,0-1.16,0-1.15-1.14,0-.3-.08-.62,.11-.93Z"/>
          <path id="Path_10" data-name="Path 10" class="cls-1" d="M12.8,10.9c-.6-.33-.97-.8-1.4-1.2-.12-.11-.08-.26,.02-.37,.88-.93,1.76-1.85,2.65-2.77,.16-.16,.35-.19,.57-.19,1.94,.01,3.87,.01,5.81,.03,.46,0,.53,.08,.55,.55,0,.14,0,.28,0,.41,0,2.35,.02,4.7,.03,7.05,.01,3.15,.02,6.29,.04,9.44,0,1.09,0,1.01-1.03,1.01-1.03,0-1.04,0-1.04-1.02-.01-2.87-.03-5.74-.04-8.61,0-1.97-.02-3.94-.03-5.91,0-.17,0-.35-.02-.52,0-.17-.13-.32-.31-.33,0,0-.01,0-.02,0-1.07,0-2.14,0-3.22,0-.27,0-.43,.18-.6,.36-.54,.58-1.08,1.16-1.63,1.74-.09,.1-.2,.19-.35,.32Z"/>
        </g>
        <g id="Group_4" data-name="Group 4">
          <path id="Path_11" data-name="Path 11" class="cls-1" d="M27.69,24.61h-.42l-.51-.85c-.04-.07-.09-.14-.13-.2-.04-.05-.08-.1-.13-.14-.04-.03-.09-.06-.15-.08-.06-.02-.12-.03-.18-.02h-.29v1.28h-.35v-3.02h.9c.12,0,.25,.02,.37,.05,.11,.03,.2,.08,.29,.15,.08,.07,.15,.15,.19,.25,.05,.11,.07,.23,.07,.35,0,.1-.01,.2-.05,.29-.03,.09-.08,.17-.13,.23-.06,.07-.13,.13-.21,.18-.09,.05-.18,.09-.28,.11h0s.09,.05,.13,.09c.04,.03,.07,.06,.11,.1,.04,.04,.07,.09,.1,.13,.03,.05,.07,.11,.11,.17l.57,.91Zm-1.81-2.7v1.09h.48c.08,0,.17-.01,.25-.04,.07-.02,.14-.06,.19-.11,.06-.05,.1-.11,.13-.18,.03-.08,.05-.16,.05-.24,0-.14-.05-.28-.16-.38-.13-.1-.29-.15-.45-.14h-.48Z"/>
          <path id="Path_12" data-name="Path 12" class="cls-1" d="M36.32,24.61h-1.6v-3.02h1.53v.32h-1.18v1h1.09v.32h-1.09v1.06h1.25v.32Z"/>
          <path id="Path_13" data-name="Path 13" class="cls-1" d="M45.84,24.61h-.39l-.32-.85h-1.28l-.3,.85h-.39l1.16-3.02h.37l1.16,3.02Zm-.83-1.16l-.47-1.29c-.02-.07-.04-.13-.05-.2h0c0,.07-.03,.14-.05,.2l-.47,1.29h1.05Z"/>
          <path id="Path_14" data-name="Path 14" class="cls-1" d="M54.46,24.61h-1.57v-3.02h.35v2.7h1.21v.32Z"/>
          <path id="Path_15" data-name="Path 15" class="cls-1" d="M70.92,24.61h-1.6v-3.02h1.53v.32h-1.18v1h1.09v.32h-1.09v1.06h1.25v.32Z"/>
          <path id="Path_16" data-name="Path 16" class="cls-1" d="M77.96,24.48v-.42c.05,.05,.11,.08,.17,.11,.07,.03,.14,.06,.21,.09,.07,.02,.15,.04,.22,.05,.07,.01,.14,.02,.21,.02,.17,.01,.34-.03,.49-.12,.16-.14,.21-.37,.11-.56-.04-.06-.09-.12-.15-.17-.07-.05-.15-.1-.22-.14-.09-.05-.18-.09-.28-.14-.11-.05-.2-.11-.29-.16-.09-.05-.17-.11-.24-.18-.07-.06-.12-.14-.16-.22-.09-.21-.08-.45,.03-.65,.06-.1,.14-.19,.24-.25,.1-.07,.22-.12,.34-.15,.13-.03,.25-.05,.38-.05,.3,0,.51,.04,.65,.11v.4c-.2-.13-.44-.2-.69-.19-.08,0-.16,0-.23,.02-.07,.01-.14,.04-.21,.08-.06,.04-.11,.08-.15,.14-.04,.06-.06,.14-.06,.21,0,.07,.01,.14,.04,.2,.03,.06,.07,.11,.13,.15,.06,.05,.13,.1,.21,.13,.08,.04,.17,.09,.28,.14,.11,.05,.21,.11,.31,.17,.09,.06,.18,.12,.25,.2,.07,.07,.13,.15,.17,.24,.04,.09,.07,.2,.06,.3,0,.13-.03,.26-.09,.38-.06,.1-.14,.19-.24,.25-.1,.07-.22,.11-.34,.14-.13,.03-.27,.04-.41,.04-.06,0-.12,0-.18-.01-.07,0-.14-.02-.21-.03-.07-.01-.14-.03-.21-.05-.06-.02-.11-.04-.16-.07Z"/>
          <path id="Path_17" data-name="Path 17" class="cls-1" d="M88.79,21.91h-.87v2.7h-.35v-2.7h-.87v-.32h2.09v.32Z"/>
          <path id="Path_18" data-name="Path 18" class="cls-1" d="M98.2,24.61h-.39l-.32-.85h-1.28l-.3,.85h-.39l1.16-3.02h.37l1.16,3.02Zm-.83-1.16l-.47-1.29c-.02-.07-.04-.13-.05-.2h0c0,.07-.03,.14-.05,.2l-.47,1.29h1.05Z"/>
          <path id="Path_19" data-name="Path 19" class="cls-1" d="M107.04,21.91h-.87v2.7h-.35v-2.7h-.87v-.32h2.09v.32Z"/>
          <path id="Path_20" data-name="Path 20" class="cls-1" d="M115.72,24.61h-1.6v-3.02h1.53v.32h-1.18v1h1.09v.32h-1.09v1.06h1.25v.32Z"/>
        </g>
      </g>
      <line id="Line_8" data-name="Line 8" class="cls-2" x1="25.14" y1="1" x2="116.56" y2="1"/>
    </g>
  </g>
</svg>