<?xml version="1.0" encoding="UTF-8"?>
<svg version="1.1" xmlns="http://www.w3.org/2000/svg" width="218" height="47">
<path d="M0 0 C55.77 0 111.54 0 169 0 C169 2.31 169 4.62 169 7 C113.23 7 57.46 7 0 7 C0 4.69 0 2.38 0 0 Z " fill="#FFBE20" transform="translate(47,0)"/>
<path d="M0 0 C14 0 14 0 17.8125 3.375 C18.56660156 4.48681641 18.56660156 4.48681641 19.3359375 5.62109375 C20.94889351 8.1197595 20.94889351 8.1197595 23.4140625 10.16015625 C27.53884723 13.88267869 30.14368418 16.7776564 30.5703125 22.41796875 C30.70328214 26.66668839 30.30604948 30.71530733 30 35 C22.74 35 15.48 35 8 35 C8 33.68 8 32.36 8 31 C13.61 31 19.22 31 25 31 C25.28848545 24.46099649 24.44458515 20.97696199 20.09301758 16.20019531 C18.60356253 14.6672612 17.08967196 13.16331788 15.56640625 11.6640625 C13.40744336 9.4229473 12.12710352 7.84812986 11 5 C9.02 5 7.04 5 5 5 C5 14.9 5 24.8 5 35 C3.35 35 1.7 35 0 35 C0 23.45 0 11.9 0 0 Z " fill="#FFFFFF" transform="translate(0,12)"/>
<path d="M0 0 C4.62 0 9.24 0 14 0 C14 11.55 14 23.1 14 35 C12.35 35 10.7 35 9 35 C9 25.1 9 15.2 9 5 C2.50669817 5.31885384 2.50669817 5.31885384 0.0625 7.5625 C-0.288125 8.036875 -0.63875 8.51125 -1 9 C-2.32 8.34 -3.64 7.68 -5 7 C-3.61410019 3.90837736 -2.50816459 2.50816459 0 0 Z " fill="#FFFFFF" transform="translate(26,12)"/>
<path d="M0 0 C1.32 0 2.64 0 4 0 C5.4606285 2.64738916 6 3.89448334 6 7 C6.66 7 7.32 7 8 7 C8.144375 6.21625 8.28875 5.4325 8.4375 4.625 C9 2 9 2 10 0 C11.32 0 12.64 0 14 0 C14.66 1.98 15.32 3.96 16 6 C18.10232344 3.1315587 18.10232344 3.1315587 19 0 C20.32 0 21.64 0 23 0 C21.98408579 5.46864457 20.92908943 10.76390013 19 16 C16.525 15.505 16.525 15.505 14 15 C13.34 13.02 12.68 11.04 12 9 C11.01 11.31 10.02 13.62 9 16 C7.35 15.67 5.7 15.34 4 15 C3.32779649 13.06441401 2.66241923 11.12645628 2 9.1875 C1.62875 8.10855469 1.2575 7.02960937 0.875 5.91796875 C0 3 0 3 0 0 Z " fill="#FFFFFF" transform="translate(117,19)"/>
<path d="M0 0 C5 1 5 1 6.8125 3.4375 C8 6 8 6 8 8 C8.66 8 9.32 8 10 8 C10.28875 7.236875 10.5775 6.47375 10.875 5.6875 C12 3 12 3 14 0 C14.99 0 15.98 0 17 0 C17.91657981 5.38490641 18.11138159 10.54230189 18 16 C16.68 16 15.36 16 14 16 C13.67 14.02 13.34 12.04 13 10 C12.34 11.32 11.68 12.64 11 14 C9.125 13.6875 9.125 13.6875 7 13 C6.34 12.01 5.68 11.02 5 10 C4.67 11.98 4.34 13.96 4 16 C2.68 16 1.36 16 0 16 C0 10.72 0 5.44 0 0 Z " fill="#FFFFFF" transform="translate(45,19)"/>
<path d="M0 0 C10.13528336 -0.48263254 10.13528336 -0.48263254 13.6875 1.5 C15.67015459 5.27648494 15.47243909 7.7480482 15 12 C13.60698028 14.15918056 12.65259826 14.73412664 10.3125 15.6875 C6.90439981 16.14805408 3.43907792 16 0 16 C0 10.72 0 5.44 0 0 Z M4 4 C4 6.64 4 9.28 4 12 C6.41645782 12.16687448 6.41645782 12.16687448 9 12 C11.28728734 10.16116119 11.28728734 10.16116119 11.125 7.375 C11.08375 6.59125 11.0425 5.8075 11 5 C8.69 4.67 6.38 4.34 4 4 Z " fill="#FFFFFF" transform="translate(203,19)"/>
<path d="M0 0 C9.625 -0.25 9.625 -0.25 13 2 C13.4375 8.125 13.4375 8.125 12 11 C12.27942455 12.67654729 12.60828247 14.34608154 13 16 C11.125 15.75 11.125 15.75 9 15 C7.75 12.9375 7.75 12.9375 7 11 C6.01 11 5.02 11 4 11 C4 12.65 4 14.3 4 16 C2.68 16 1.36 16 0 16 C0 10.72 0 5.44 0 0 Z M4 4 C4 5.32 4 6.64 4 8 C5.65 7.67 7.3 7.34 9 7 C9 6.01 9 5.02 9 4 C7.35 4 5.7 4 4 4 Z " fill="#FFFFFF" transform="translate(167,19)"/>
<path d="M0 0 C2.5 1.5 2.5 1.5 4 4 C4.60443392 6.80917861 4.66040854 9.19757073 4 12 C1.45005852 14.99993115 -0.12882756 15.85480459 -4 16.5 C-7.87117244 15.85480459 -9.45005852 14.99993115 -12 12 C-12.94237143 8.00106731 -12.61136591 5.01894318 -10.5 1.5 C-6.96411027 -0.62153384 -4.02098277 -0.791013 0 0 Z M-8 5 C-8.41666667 7.5 -8.41666667 7.5 -8 10 C-7.34 10.66 -6.68 11.32 -6 12 C-3.39719432 11.67958603 -3.39719432 11.67958603 -1 11 C-0.23043864 8.65466049 -0.23043864 8.65466049 0 6 C-1.20918882 4.12359581 -1.20918882 4.12359581 -3 3 C-5.32357511 2.81509993 -5.32357511 2.81509993 -8 5 Z " fill="#FFFFFF" transform="translate(157,19)"/>
<path d="M0 0 C2.32421875 0.1328125 2.32421875 0.1328125 5 1 C6.58203125 3.6171875 6.58203125 3.6171875 7.8125 6.875 C8.23144531 7.94492187 8.65039062 9.01484375 9.08203125 10.1171875 C10 13 10 13 10 16 C8.68 16 7.36 16 6 16 C5.67 14.68 5.34 13.36 5 12 C2.06556598 12.26656572 2.06556598 12.26656572 -1 13 C-1.99 14.485 -1.99 14.485 -3 16 C-3.99 16 -4.98 16 -6 16 C-5.52412884 9.97229862 -2.80277043 5.23321711 0 0 Z M1 6 C1 6.99 1 7.98 1 9 C1.66 9 2.32 9 3 9 C2.67 8.01 2.34 7.02 2 6 C1.67 6 1.34 6 1 6 Z " fill="#FFFFFF" transform="translate(74,19)"/>
<path d="M0 0 C0.66 1.32 1.32 2.64 2 4 C-1 5 -1 5 -4 4 C-4.99 4.66 -5.98 5.32 -7 6 C-6.67 7.65 -6.34 9.3 -6 11 C-2.535 10.505 -2.535 10.505 1 10 C1.33 11.32 1.66 12.64 2 14 C-1.62784775 16.41856517 -3.00510803 16.19770311 -7.125 15.53125 C-9 15 -9 15 -11 13.375 C-12.41219248 10.02104287 -12.45019252 7.60154012 -12 4 C-8.92690336 -0.99378204 -5.33129622 -0.35541975 0 0 Z " fill="#FFFFFF" transform="translate(100,19)"/>
<path d="M0 0 C1.32 0 2.64 0 4 0 C4 3.96 4 7.92 4 12 C6.31 12 8.62 12 11 12 C11 13.32 11 14.64 11 16 C7.37 16 3.74 16 0 16 C0 10.72 0 5.44 0 0 Z " fill="#FFFFFF" transform="translate(187,19)"/>
<path d="M0 0 C2.475 0.495 2.475 0.495 5 1 C5.33 2.65 5.66 4.3 6 6 C3.92446352 6.5534764 2.15634036 7 0 7 C0 4.69 0 2.38 0 0 Z " fill="#FFFFFF" transform="translate(47,40)"/>
<path d="M0 0 C1.65 0 3.3 0 5 0 C5 2.31 5 4.62 5 7 C3.35 7 1.7 7 0 7 C0 4.69 0 2.38 0 0 Z " fill="#FFFFFF" transform="translate(64,40)"/>
<path d="M0 0 C2.0625 0.4375 2.0625 0.4375 4 1 C4 2.65 4 4.3 4 6 C2.0625 6.5625 2.0625 6.5625 0 7 C-1 6 -1 6 -1.125 3.5 C-1 1 -1 1 0 0 Z " fill="#FFFFFF" transform="translate(145,40)"/>
<path d="M0 0 C1.32 0 2.64 0 4 0 C4.33 2.31 4.66 4.62 5 7 C3.35 7 1.7 7 0 7 C0 4.69 0 2.38 0 0 Z " fill="#FFFFFF" transform="translate(128,40)"/>
<path d="M0 0 C0.99 0.33 1.98 0.66 3 1 C3.33 2.98 3.66 4.96 4 7 C2 7 0 7 -2 7 C-1.125 2.25 -1.125 2.25 0 0 Z " fill="#FFFFFF" transform="translate(82,40)"/>
<path d="M0 0 C1.32 0 2.64 0 4 0 C4 2.31 4 4.62 4 7 C2.68 7 1.36 7 0 7 C0 4.69 0 2.38 0 0 Z " fill="#FFFFFF" transform="translate(210,40)"/>
<path d="M0 0 C0.66 0 1.32 0 2 0 C3.4606285 2.64738916 4 3.89448334 4 7 C2 7 0 7 -2 7 C-1.125 1.125 -1.125 1.125 0 0 Z " fill="#FFFFFF" transform="translate(178,40)"/>
<path d="M0 0 C1.65 0 3.3 0 5 0 C5 0.66 5 1.32 5 2 C4.34 2 3.68 2 3 2 C3 3.65 3 5.3 3 7 C2.34 7 1.68 7 1 7 C0.67 4.69 0.34 2.38 0 0 Z " fill="#FFFFFF" transform="translate(193,40)"/>
<path d="M0 0 C1.65 0 3.3 0 5 0 C4.67 2.31 4.34 4.62 4 7 C3.34 7 2.68 7 2 7 C2 5.35 2 3.7 2 2 C1.34 2 0.68 2 0 2 C0 1.34 0 0.68 0 0 Z " fill="#FFFFFF" transform="translate(160,40)"/>
<path d="M0 0 C0.66 0 1.32 0 2 0 C2 1.32 2 2.64 2 4 C2.66 4 3.32 4 4 4 C4 4.99 4 5.98 4 7 C2.68 7 1.36 7 0 7 C0 4.69 0 2.38 0 0 Z " fill="#FFFFFF" transform="translate(98,40)"/>
</svg>
