<?xml version="1.0" encoding="iso-8859-1"?>
<!-- Generator: Adobe Illustrator 27.3.1, SVG Export Plug-In . SVG Version: 6.00 Build 0)  -->
<svg version="1.1" id="Layer_1" xmlns="http://www.w3.org/2000/svg" xmlns:xlink="http://www.w3.org/1999/xlink" x="0px" y="0px"
	 viewBox="0 0 880.53 235.688" style="enable-background:new 0 0 880.53 235.688;" xml:space="preserve">
<g>
	<g>
		<path style="fill:#FFFFFF;" d="M0,172.995v-72.696h11.11l31.78,53.068h-5.818l31.259-53.068h11.114l0.207,72.696H66.671v-52.653
			h2.595L42.889,164.79h-6.126L9.759,120.343h3.116v52.653H0z"/>
		<path style="fill:#FFFFFF;" d="M112.257,172.995l32.716-72.696h13.29l32.817,72.696h-14.226l-28.041-65.532h5.403l-28.143,65.532
			H112.257z M127.317,156.17l3.739-10.593h39.151l3.632,10.593H127.317z"/>
		<path style="fill:#FFFFFF;" d="M256.298,174.037c-5.61,0-10.768-0.922-15.475-2.757s-8.809-4.444-12.308-7.837
			c-3.494-3.393-6.214-7.339-8.15-11.838c-1.941-4.499-2.909-9.487-2.909-14.954c0-5.476,0.968-10.455,2.909-14.954
			c1.936-4.508,4.674-8.454,8.205-11.847c3.531-3.393,7.648-6.002,12.359-7.837c4.707-1.835,9.865-2.757,15.47-2.757
			c5.956,0,11.391,1.023,16.305,3.07c4.914,2.038,9.067,5.071,12.46,9.081l-8.722,8.205c-2.701-2.84-5.679-4.969-8.929-6.389
			c-3.254-1.42-6.753-2.13-10.492-2.13c-3.808,0-7.283,0.627-10.437,1.872c-3.148,1.245-5.882,3.015-8.201,5.301
			c-2.323,2.277-4.14,4.979-5.453,8.095c-1.318,3.116-1.973,6.546-1.973,10.289c0,3.734,0.655,7.164,1.973,10.28
			c1.314,3.116,3.13,5.818,5.453,8.095c2.319,2.286,5.052,4.057,8.201,5.301c3.153,1.245,6.629,1.872,10.437,1.872
			c3.739,0,7.237-0.71,10.492-2.13c3.25-1.42,6.228-3.586,8.929-6.491l8.722,8.196c-3.393,4.02-7.546,7.062-12.46,9.146
			C267.79,172.995,262.319,174.037,256.298,174.037z"/>
		<path style="fill:#FFFFFF;" d="M390.673,172.995l-24.095-72.696h14.023l21.495,65.735h-6.961l22.33-65.735h12.46l21.707,65.735
			h-6.753l22.016-65.735h12.88l-24.095,72.696h-14.332l-19.831-59.3h3.739l-20.043,59.3H390.673z"/>
		<path style="fill:#FFFFFF;" d="M547.488,174.037c-5.61,0-10.819-0.94-15.632-2.803c-4.813-1.872-8.98-4.508-12.511-7.901
			c-3.531-3.384-6.269-7.348-8.205-11.884c-1.941-4.536-2.909-9.468-2.909-14.797c0-5.403,0.968-10.372,2.909-14.908
			c1.936-4.536,4.674-8.482,8.205-11.838c3.531-3.356,7.685-5.974,12.46-7.846c4.776-1.862,10.003-2.803,15.682-2.803
			c5.605,0,10.801,0.922,15.576,2.757c4.776,1.835,8.915,4.425,12.409,7.791c3.494,3.356,6.214,7.32,8.155,11.893
			c1.936,4.564,2.904,9.551,2.904,14.954c0,5.393-0.968,10.363-2.904,14.899c-1.941,4.536-4.66,8.5-8.155,11.893
			c-3.494,3.393-7.634,6.002-12.409,7.837C558.289,173.115,553.094,174.037,547.488,174.037z M547.488,162.199
			c3.669,0,7.044-0.627,10.123-1.872c3.079-1.245,5.767-3.015,8.049-5.301c2.286-2.277,4.066-4.979,5.347-8.095
			c1.281-3.116,1.922-6.546,1.922-10.28c0-3.743-0.622-7.173-1.867-10.289c-1.249-3.116-3.033-5.818-5.352-8.095
			c-2.319-2.286-5.02-4.057-8.099-5.301s-6.454-1.872-10.123-1.872s-7.081,0.627-10.229,1.872c-3.153,1.245-5.868,3.033-8.155,5.347
			c-2.282,2.323-4.084,5.025-5.398,8.104c-1.318,3.079-1.973,6.491-1.973,10.234c0,3.669,0.655,7.062,1.973,10.169
			c1.314,3.116,3.116,5.836,5.398,8.159c2.286,2.314,5.002,4.103,8.155,5.347C540.407,161.572,543.819,162.199,547.488,162.199z"/>
		<path style="fill:#FFFFFF;" d="M624.231,172.995v-72.696h29.908c6.435,0,11.958,1.023,16.563,3.061
			c4.605,2.047,8.15,5.006,10.644,8.878c2.494,3.881,3.739,8.519,3.739,13.921c0,5.329-1.245,9.902-3.739,13.709
			s-6.039,6.749-10.644,8.823c-4.605,2.084-10.128,3.116-16.563,3.116h-22.33l5.919-6.02v27.207H624.231z M637.729,147.245
			l-5.919-6.546h21.707c5.951,0,10.437-1.282,13.447-3.845c3.01-2.563,4.518-6.122,4.518-10.695c0-4.573-1.507-8.122-4.518-10.649
			c-3.01-2.526-7.495-3.789-13.447-3.789H631.81l5.919-6.647V147.245z M671.79,172.995l-18.379-26.377h14.433l18.485,26.377H671.79z
			"/>
		<path style="fill:#FFFFFF;" d="M723.512,172.995v-72.696h13.497v61.273h38.012v11.423H723.512z"/>
		<path style="fill:#FFFFFF;" d="M809.083,172.995v-72.696h31.881c7.754,0,14.622,1.503,20.615,4.518
			c5.983,3.015,10.644,7.256,13.968,12.723c3.319,5.467,4.983,11.838,4.983,19.112c0,7.265-1.664,13.636-4.983,19.103
			c-3.324,5.467-7.984,9.708-13.968,12.723c-5.993,3.015-12.861,4.518-20.615,4.518H809.083z M822.58,161.572h17.554
			c5.467,0,10.192-1.042,14.175-3.116c3.978-2.074,7.094-4.988,9.344-8.722c2.25-3.743,3.374-8.104,3.374-13.083
			c0-5.126-1.125-9.524-3.374-13.193c-2.25-3.669-5.366-6.546-9.344-8.62c-3.983-2.074-8.708-3.116-14.175-3.116H822.58V161.572z"/>
	</g>
	<g>
		<path style="fill:#FFFFFF;" d="M7.924,235.31v-26.432h9.92c2.134,0,3.969,0.369,5.495,1.116c1.526,0.738,2.706,1.816,3.531,3.227
			c0.825,1.411,1.24,3.098,1.24,5.062c0,1.936-0.415,3.596-1.24,4.979c-0.825,1.392-2.005,2.462-3.531,3.218
			c-1.526,0.747-3.361,1.125-5.495,1.125h-7.403l1.964-2.185v9.893H7.924z M12.405,225.943l-1.964-2.379h7.196
			c1.978,0,3.462-0.461,4.462-1.392c1-0.931,1.498-2.231,1.498-3.891c0-1.669-0.498-2.95-1.498-3.872s-2.485-1.383-4.462-1.383
			h-7.196l1.964-2.416V225.943z M23.699,235.31l-6.094-9.588h4.79l6.131,9.588H23.699z"/>
		<path style="fill:#FFFFFF;" d="M99.58,231.152h13.603v4.158H95.099v-26.432h17.6v4.149H99.58V231.152z M99.234,219.867h11.985
			v4.038H99.234V219.867z"/>
		<path style="fill:#FFFFFF;" d="M176.771,235.31l10.847-26.432h4.412l10.884,26.432h-4.72l-9.298-23.832h1.789l-9.335,23.832
			H176.771z M181.763,229.188l1.24-3.845h12.986l1.203,3.845H181.763z"/>
		<path style="fill:#FFFFFF;" d="M267.97,235.31v-26.432h4.481v22.274h12.603v4.158H267.97z"/>
		<path style="fill:#FFFFFF;" d="M426.588,231.152h13.603v4.158h-18.084v-26.432h17.6v4.149h-13.119V231.152z M426.242,219.867
			h11.985v4.038h-11.985V219.867z"/>
		<path style="fill:#FFFFFF;" d="M514.657,235.688c-1.885,0-3.683-0.295-5.393-0.885c-1.71-0.59-3.079-1.355-4.112-2.286
			l1.549-3.817c0.963,0.83,2.157,1.521,3.582,2.074c1.424,0.562,2.881,0.839,4.375,0.839c1.263,0,2.282-0.157,3.065-0.461
			c0.779-0.295,1.355-0.71,1.719-1.226c0.369-0.516,0.553-1.097,0.553-1.752c0-0.811-0.263-1.457-0.793-1.945
			c-0.53-0.489-1.212-0.885-2.051-1.171c-0.834-0.286-1.766-0.553-2.789-0.793c-1.019-0.24-2.042-0.535-3.065-0.885
			c-1.019-0.36-1.955-0.802-2.807-1.346c-0.848-0.535-1.53-1.263-2.047-2.167c-0.516-0.913-0.774-2.065-0.774-3.476
			c0-1.438,0.346-2.747,1.046-3.946c0.701-1.199,1.77-2.157,3.204-2.867c1.438-0.719,3.255-1.079,5.463-1.079
			c1.443,0,2.881,0.203,4.305,0.599c1.42,0.406,2.66,0.986,3.72,1.742l-1.415,3.808c-1.079-0.701-2.19-1.226-3.342-1.558
			c-1.148-0.341-2.25-0.516-3.305-0.516c-1.217,0-2.217,0.166-2.996,0.489c-0.779,0.332-1.351,0.765-1.706,1.309
			s-0.535,1.134-0.535,1.789c0,0.811,0.258,1.457,0.779,1.945c0.516,0.498,1.194,0.876,2.028,1.152
			c0.839,0.277,1.775,0.544,2.807,0.793c1.037,0.258,2.056,0.553,3.065,0.885c1.014,0.341,1.941,0.784,2.794,1.328
			c0.848,0.544,1.53,1.254,2.047,2.148c0.516,0.894,0.774,2.038,0.774,3.42c0,1.411-0.35,2.711-1.051,3.909
			c-0.701,1.199-1.77,2.148-3.218,2.867C518.686,235.329,516.861,235.688,514.657,235.688z"/>
		<path style="fill:#FFFFFF;" d="M595.388,235.31v-22.284h-7.989v-4.149h20.458v4.149h-7.989v22.284H595.388z"/>
		<path style="fill:#FFFFFF;" d="M668.619,235.31l10.847-26.432h4.412l10.884,26.432h-4.72l-9.298-23.832h1.789l-9.335,23.832
			H668.619z M673.611,229.188l1.24-3.845h12.986l1.203,3.845H673.611z"/>
		<path style="fill:#FFFFFF;" d="M763.511,235.31v-22.284h-7.989v-4.149h20.458v4.149h-7.989v22.284H763.511z"/>
		<path style="fill:#FFFFFF;" d="M845.832,231.152h13.603v4.158h-18.084v-26.432h17.6v4.149h-13.119V231.152z M845.486,219.867
			h11.985v4.038h-11.985V219.867z"/>
	</g>
	<g>
		<g>
			<rect x="7.924" style="fill:#FFBF20;" width="861.399" height="28.322"/>
		</g>
	</g>
</g>
</svg>
